<svg xmlns="http://www.w3.org/2000/svg" xmlns:xlink="http://www.w3.org/1999/xlink" version="1.1" id="Layer_1" x="0px" y="0px" viewBox="0 0 100 100" xml:space="preserve">
<g>
	<g>
		<circle fill="#78A0CF" cx="13" cy="29" r="2"></circle>
	</g>
	<g>
		<circle style="fill:#F1BC19;" cx="77" cy="13" r="1"></circle>
	</g>
	<g>
		<circle style="fill:#CEE1F4;" cx="50" cy="50" r="37"></circle>
	</g>
	<g>
		<circle style="fill:#F1BC19;" cx="83" cy="15" r="4"></circle>
	</g>
	<g>
		<circle style="fill:#78A0CF;" cx="87" cy="24" r="2"></circle>
	</g>
	<g>
		<circle style="fill:#FBCD59;" cx="81" cy="76" r="2"></circle>
	</g>
	<g>
		<circle style="fill:#FBCD59;" cx="15" cy="63" r="4"></circle>
	</g>
	<g>
		<circle style="fill:#78A0CF;" cx="25" cy="87" r="2"></circle>
	</g>
	<g>
		<circle style="fill:#FFFFFF;" cx="18.5" cy="53.5" r="2.5"></circle>
	</g>
	<g>
		<circle style="fill:#F1BC19;" cx="21" cy="67" r="1"></circle>
	</g>
	<g>
		<circle style="fill:#FFFFFF;" cx="80" cy="34" r="1"></circle>
	</g>
</g>
<g>
	<path fill="rgba(253, 231, 81, 0.5);" d="M51.626,23.657l7.011,14.306c0.196,0.399,0.576,0.676,1.016,0.74l15.655,2.267   c1.103,0.16,1.546,1.514,0.75,2.294L64.711,54.4c-0.315,0.309-0.459,0.753-0.384,1.189l2.694,15.74   c0.189,1.102-0.971,1.941-1.959,1.417l-14.016-7.432c-0.395-0.209-0.867-0.209-1.262,0L35.77,72.746   c-0.988,0.524-2.147-0.315-1.959-1.417l2.694-15.74c0.074-0.435-0.069-0.879-0.384-1.189L24.774,43.265   c-0.796-0.781-0.353-2.135,0.75-2.294l15.655-2.267c0.44-0.064,0.821-0.341,1.016-0.74l7.011-14.306   C49.7,22.652,51.133,22.652,51.626,23.657z"></path>
	<path style="fill:#472B29;" d="M65.695,73.605c-0.328,0-0.656-0.08-0.96-0.241L50.72,65.932c-0.19-0.102-0.417-0.102-0.606,0   l-14.016,7.433c-0.696,0.368-1.522,0.312-2.16-0.15c-0.637-0.461-0.95-1.229-0.817-2.004l2.694-15.74   c0.036-0.209-0.033-0.422-0.185-0.571L24.284,43.765c-0.56-0.549-0.756-1.353-0.512-2.098s0.877-1.277,1.652-1.389l15.655-2.267   c0.211-0.031,0.394-0.164,0.488-0.356l7.012-14.306c0.346-0.707,1.05-1.146,1.837-1.146s1.492,0.438,1.839,1.146v0.001   l7.011,14.307c0.094,0.191,0.276,0.324,0.489,0.355l15.654,2.267c0.775,0.111,1.408,0.644,1.652,1.389   c0.243,0.745,0.047,1.549-0.513,2.098L65.201,54.899c-0.15,0.147-0.22,0.361-0.184,0.57l2.694,15.74   c0.132,0.775-0.182,1.543-0.818,2.004C66.535,73.474,66.116,73.605,65.695,73.605z M50.417,64.456c0.33,0,0.66,0.079,0.959,0.239   l14.015,7.433c0.222,0.117,0.477,0.1,0.683-0.048c0.204-0.148,0.301-0.385,0.258-0.634l-2.694-15.74   c-0.112-0.66,0.105-1.335,0.583-1.806l11.349-11.136c0.18-0.176,0.24-0.424,0.162-0.662c-0.078-0.239-0.273-0.403-0.521-0.439   l-15.656-2.267c-0.669-0.098-1.246-0.518-1.544-1.124l-7.011-14.308v0.001c-0.165-0.337-0.487-0.363-0.582-0.363   c-0.094,0-0.416,0.026-0.581,0.362l-7.012,14.307c-0.297,0.606-0.874,1.027-1.543,1.125l-15.657,2.267   c-0.249,0.036-0.444,0.2-0.522,0.439c-0.078,0.238-0.018,0.486,0.162,0.662l11.348,11.135c0.479,0.472,0.697,1.146,0.583,1.807   l-2.694,15.74c-0.042,0.249,0.054,0.485,0.258,0.634c0.206,0.149,0.461,0.166,0.683,0.048l14.015-7.433   C49.757,64.535,50.087,64.456,50.417,64.456z"></path>
</g>
<g>
	<path style="fill:#472B29;" d="M56.75,42.25c-0.095,0-0.186-0.055-0.228-0.146l-1.213-2.664c-0.058-0.126-0.002-0.273,0.124-0.331   c0.122-0.06,0.273-0.003,0.331,0.124l1.213,2.664c0.058,0.126,0.002,0.273-0.124,0.331C56.82,42.243,56.785,42.25,56.75,42.25z"></path>
</g>
<g>
	<path style="fill:#472B29;" d="M52.266,32.285c-0.096,0-0.187-0.055-0.229-0.147l-1.635-3.65c-0.057-0.126,0-0.274,0.126-0.331   c0.125-0.059,0.274-0.001,0.33,0.126l1.636,3.65c0.056,0.126,0,0.274-0.126,0.331C52.335,32.278,52.3,32.285,52.266,32.285z"></path>
</g>
<g>
	<path style="fill:#472B29;" d="M39.985,67.139c-0.089,0-0.176-0.048-0.221-0.133c-0.065-0.122-0.019-0.273,0.104-0.338l7.378-3.909   c0.122-0.064,0.273-0.02,0.338,0.104c0.065,0.122,0.019,0.273-0.104,0.338l-7.378,3.909C40.065,67.129,40.025,67.139,39.985,67.139   z"></path>
</g>
<g>
	<path style="fill:#472B29;" d="M70.417,44.083c-0.011,0-0.021-0.001-0.033-0.002l-13.77-1.818   c-0.137-0.019-0.232-0.144-0.215-0.281c0.018-0.136,0.131-0.224,0.281-0.215l13.77,1.818c0.137,0.019,0.232,0.144,0.215,0.281   C70.648,43.991,70.541,44.083,70.417,44.083z"></path>
</g>
<g>
	<path style="fill:#472B29;" d="M30.397,44.083c-0.124,0-0.231-0.093-0.248-0.219c-0.017-0.137,0.08-0.262,0.217-0.279l5.269-0.666   c0.135-0.009,0.261,0.08,0.279,0.217c0.017,0.137-0.08,0.262-0.217,0.279l-5.269,0.666C30.418,44.082,30.408,44.083,30.397,44.083z   "></path>
</g>
<g>
	<path style="fill:#472B29;" d="M37.48,43.083c-0.124,0-0.231-0.093-0.248-0.219c-0.017-0.137,0.08-0.262,0.217-0.279l5.27-0.666   c0.132-0.014,0.262,0.079,0.279,0.217c0.017,0.137-0.08,0.262-0.217,0.279l-5.27,0.666C37.501,43.082,37.491,43.083,37.48,43.083z"></path>
</g>
<g>
	<path style="fill:#472B29;" d="M54.253,36.873c-0.096,0-0.187-0.055-0.229-0.147l-0.817-1.824c-0.056-0.126,0-0.274,0.126-0.331   c0.125-0.057,0.274,0.001,0.331,0.126l0.817,1.824c0.056,0.126,0,0.274-0.126,0.331C54.322,36.866,54.287,36.873,54.253,36.873z"></path>
</g>
<g>
	<path style="fill:#472B29;" d="M40.228,56.824c-0.017,0-0.034-0.002-0.05-0.005c-0.135-0.027-0.223-0.159-0.195-0.295l0.583-2.868   c0.028-0.135,0.161-0.219,0.295-0.195c0.135,0.027,0.223,0.159,0.195,0.295l-0.583,2.868   C40.448,56.742,40.344,56.824,40.228,56.824z"></path>
</g>
<g>
	<path style="fill:#472B29;" d="M37.769,68.569c-0.017,0-0.035-0.002-0.052-0.005c-0.135-0.028-0.222-0.161-0.193-0.296l0.82-3.915   c0.028-0.136,0.165-0.221,0.296-0.194c0.135,0.028,0.222,0.161,0.193,0.296l-0.82,3.915C37.988,68.488,37.884,68.569,37.769,68.569   z"></path>
</g>
<g>
	<path style="fill:#472B29;" d="M40.902,54.004c-0.062,0-0.124-0.022-0.172-0.068l-10.076-9.559   c-0.101-0.096-0.104-0.254-0.009-0.354c0.095-0.1,0.253-0.104,0.353-0.01l10.076,9.559c0.101,0.096,0.104,0.254,0.009,0.354   C41.035,53.978,40.968,54.004,40.902,54.004z"></path>
</g>
<g>
	<path style="fill:#472B29;" d="M39.264,61.731c-0.017,0-0.035-0.002-0.052-0.005c-0.135-0.028-0.222-0.161-0.193-0.296l0.41-1.958   c0.028-0.136,0.164-0.22,0.296-0.194c0.135,0.028,0.222,0.161,0.193,0.296l-0.41,1.958C39.484,61.65,39.38,61.731,39.264,61.731z"></path>
</g>
</svg>