<?xml version="1.0" encoding="utf-8"?>
<svg xmlns="http://www.w3.org/2000/svg" xmlns:xlink="http://www.w3.org/1999/xlink" version="1.1" viewBox="0 0 100 100" style="enable-background:new 0 0 100 100;" width="50px" height="50px">
<g>
	<g>
		<g>
			<circle style="fill:#EE3E54;"  cx="13" cy="29" r="2"/>
		</g>
		<g>
			<circle style="fill:#F1BC19;" cx="77" cy="13" r="1"/>
		</g>
		<g>
			<circle style="fill:#FCE0A2;" cx="50" cy="50" r="37"/>
		</g>
		<g>
			<circle style="fill:#F1BC19;" cx="83" cy="15" r="4"/>
		</g>
		<g>
			<circle style="fill:#EE3E54;" cx="87" cy="24" r="2"/>
		</g>
		<g>
			<circle style="fill:#FBCD59" cx="81" cy="76" r="2"/>
		</g>
		<g>
			<circle style="fill:#FBCD59" cx="15" cy="63" r="4"/>
		</g>
		<g>
			<circle style="fill:#EE3E54;" cx="25" cy="87" r="2"/>
		</g>
		<g>
			<circle style="fill:#FFFFFF" cx="18.5" cy="53.5" r="2.5"/>
		</g>
		<g>
			<circle style="fill:#F1BC19;" cx="21" cy="67" r="1"/>
		</g>
		<g>
			<circle style="fill:#FFFFFF" cx="80" cy="34" r="1"/>
		</g>
	</g>
</g>
<g>
	<g>
		<g>
			<path fill="rgba(139, 139, 193, 0.25);" d="M41.7,74.3c-3.8,0-8-2.1-8-6.8V41.9l-3-3.5V35c0-4.8,2.1-6.7,7.1-6.7h24.3c5.1,0,7.1,2,7.1,6.7v3.5l-3,3.4     v25.6c0,4.6-4.2,6.8-8.1,6.8H41.7z"/>
		</g>
		<g>
			<path style="fill:#472B29;" d="M62.2,29c5.4,0,6.4,2.3,6.4,6v0.2v1v2l-2.7,3l-0.3,0.4v0.5v25.4c0,4.2-3.7,6.1-7.4,6.1H41.7     c-3.6,0-7.3-1.9-7.3-6.1V42.2v-0.5l-0.3-0.4l-2.7-3.1v-2v-1V35c0-3.7,1.1-6,6.4-6L62.2,29 M62.2,27.6H37.8C32,27.6,30,30.2,30,35     v0.2v1v2.6l3,3.5v25.3c0,4.9,4.2,7.5,8.7,7.5h16.5c4.6,0,8.8-2.6,8.8-7.5V42.1l3-3.4v-2.6v-1V35C70,30.2,68,27.6,62.2,27.6     L62.2,27.6z"/>
		</g>
	</g>
	<g>
		<path fill="rgba(139, 139, 193, 0.25);" d="M37.4,56.6V43.1c0-1,0.9-1.8,1.9-1.8l0,0c1.1,0,1.9,0.8,1.9,1.8v13.2V67c0,1-0.9,1.8-1.9,1.8l0,0    c-1.1,0-1.9-0.8-1.9-1.8v-2.2"/>
	</g>
	<g>
		<path fill="rgba(139, 139, 193, 0.25);" d="M44.3,56.6V43.1c0-1,0.9-1.8,2-1.8l0,0c1.1,0,2,0.8,2,1.8v13.2V67c0,1-0.9,1.8-2,1.8l0,0c-1.1,0-2-0.8-2-1.8    v-2.2"/>
	</g>
	<g>
		<path style="fill:#472B29;" d="M46.5,41.8c0.9,0,1.7,0.6,1.7,1.3v13.2V67c0,0.7-0.8,1.3-1.7,1.3s-1.7-0.6-1.7-1.3v-2.2v-8.1V43.1    C44.8,42.4,45.5,41.8,46.5,41.8 M46.5,41.3c-1.2,0-2.2,0.8-2.2,1.8v13.6v8.1V67c0,1,1,1.8,2.2,1.8s2.2-0.8,2.2-1.8V56.3V43.1    C48.6,42.1,47.6,41.3,46.5,41.3L46.5,41.3z"/>
	</g>
	<g>
		<path style="fill:#472B29;" d="M39.5,68.8c-1.2,0-2.3-0.9-2.3-2v-2.3c0-0.1,0.1-0.3,0.3-0.3s0.3,0.1,0.3,0.3v2.3c0,0.8,0.8,1.5,1.8,1.5    s1.8-0.7,1.8-1.5V43.3c0-0.8-0.8-1.5-1.8-1.5s-1.8,0.7-1.8,1.5v9.2c0,0.1-0.1,0.3-0.3,0.3s-0.3-0.1-0.3-0.3v-9.2c0-1.1,1-2,2.3-2    s2.3,0.9,2.3,2v23.5C41.8,67.9,40.7,68.8,39.5,68.8z"/>
	</g>
	<g>
		<path fill="rgba(139, 139, 193, 0.25);" d="M51.4,56.6V43.1c0-1,0.9-1.8,2-1.8l0,0c1.1,0,2,0.8,2,1.8v13.2V67c0,1-0.9,1.8-2,1.8l0,0c-1.1,0-2-0.8-2-1.8    v-2.2"/>
	</g>
	<g>
		<path fill="rgba(139, 139, 193, 0.25);" d="M58.5,56.6V43.1c0-1,0.9-1.8,2-1.8l0,0c1.1,0,2,0.8,2,1.8v13.2V67c0,1-0.9,1.8-2,1.8l0,0c-1.1,0-2-0.8-2-1.8    v-2.2"/>
	</g>
	<g>
		<path fill="rgba(139, 139, 193, 0.25);" d="M51.4,56.6V43.1c0-1,0.9-1.8,2-1.8l0,0c1.1,0,2,0.8,2,1.8v13.2V67c0,1-0.9,1.8-2,1.8l0,0c-1.1,0-2-0.8-2-1.8    v-2.2"/>
	</g>
	<g>
		<path fill="rgba(139, 139, 193, 0.25);" d="M58.5,56.6V43.1c0-1,1-1.8,2.2-1.8l0,0c1.2,0,2.2,0.8,2.2,1.8v13.2V67c0,1-1,1.8-2.2,1.8l0,0    c-1.2,0-2.2-0.8-2.2-1.8v-2.2"/>
	</g>
	<g>
		<path style="fill:#472B29;" d="M53.5,41.8c0.9,0,1.6,0.6,1.6,1.3v13.2V67c0,0.7-0.7,1.3-1.6,1.3s-1.6-0.6-1.6-1.3v-2.2v-8.1V43.1    C51.9,42.4,52.7,41.8,53.5,41.8 M53.5,41.3c-1.2,0-2.1,0.8-2.1,1.8v13.6v8.1V67c0,1,1,1.8,2.1,1.8s2.1-0.8,2.1-1.8V56.3V43.1    C55.7,42.1,54.7,41.3,53.5,41.3L53.5,41.3z"/>
	</g>
	<g>
		<path style="fill:#472B29;" d="M60.6,41.5c1,0,1.8,0.6,1.8,1.3v13.5v10.9c0,0.7-0.8,1.3-1.8,1.3s-1.8-0.6-1.8-1.3v-2.3v-8.3V42.8    C58.8,42.1,59.7,41.5,60.6,41.5 M60.6,41c-1.3,0-2.3,0.8-2.3,1.8v13.8v8.3v2.3c0,1,1,1.8,2.3,1.8s2.3-0.8,2.3-1.8V56.3V42.8    C63,41.8,61.9,41,60.6,41L60.6,41z"/>
	</g>
	<g>
		<path style="fill:#472B29;" d="M32.6,45.8v7.4h0c-1.2,0-2.2-0.9-2.2-1.9v-3.7C30.4,46.6,31.4,45.8,32.6,45.8L32.6,45.8 M34,44.4h-1.4    c-2,0-3.6,1.5-3.6,3.3v3.7c0,1.8,1.6,3.3,3.6,3.3H34V44.4L34,44.4z"/>
	</g>
	<g>
		<path style="fill:#472B29;" d="M67.4,45.8c1.2,0,2.2,0.9,2.2,1.9v3.7c0,1-1,1.9-2.2,1.9h0L67.4,45.8L67.4,45.8 M67.4,44.4H66v10.2h1.4    c2,0,3.6-1.5,3.6-3.3v-3.7C71,45.9,69.4,44.4,67.4,44.4L67.4,44.4z"/>
	</g>
	<g>
		<path style="fill:#472B29;" d="M54.3,24.4c1.2,0,2.3,1.3,2.3,2.8v0.3H43.4v-0.3c0-1.5,1-2.8,2.3-2.8L54.3,24.4 M54.3,23h-8.7    c-2,0-3.7,1.9-3.7,4.2v1.7h16v-1.7C58,24.9,56.3,23,54.3,23L54.3,23z"/>
	</g>
	<g>
		<path style="fill:#472B29;" d="M68.2,39H31.5c-0.1,0-0.3-0.1-0.3-0.3s0.1-0.3,0.3-0.3h36.7c0.1,0,0.3,0.1,0.3,0.3S68.4,39,68.2,39z"/>
	</g>
	<g>
		<path style="fill:#472B29;" d="M61.5,32.8h-31c-0.1,0-0.3-0.1-0.3-0.3s0.1-0.3,0.3-0.3h31c0.1,0,0.3,0.1,0.3,0.3S61.6,32.8,61.5,32.8z"/>
	</g>
	<g>
		<path style="fill:#472B29;" d="M64.2,71.6H35.6c-0.1,0-0.3-0.1-0.3-0.3s0.1-0.3,0.3-0.3h28.5c0.1,0,0.3,0.1,0.3,0.3S64.3,71.6,64.2,71.6z"/>
	</g>
	<g>
		<path style="fill:#472B29;" d="M66.2,32.9h-3.1c-0.1,0-0.3-0.1-0.3-0.3s0.1-0.3,0.3-0.3h3.1c0.1,0,0.3,0.1,0.3,0.3S66.3,32.9,66.2,32.9z"/>
	</g>
	<g>
		<path style="fill:#472B29;" d="M37.5,58.8c-0.1,0-0.3-0.1-0.3-0.3v-3.7c0-0.1,0.1-0.3,0.3-0.3s0.3,0.1,0.3,0.3v3.7    C37.7,58.7,37.6,58.8,37.5,58.8z"/>
	</g>
	<g>
		<path style="fill:#472B29;" d="M69.5,36h-39c-0.3,0-0.5-0.2-0.5-0.5s0.2-0.5,0.5-0.5h39c0.3,0,0.5,0.2,0.5,0.5S69.8,36,69.5,36z"/>
	</g>
</g>
</svg>
